<?xml version="1.0" standalone="no"?>
<!DOCTYPE svg PUBLIC "-//W3C//DTD SVG 20010904//EN"
 "http://www.w3.org/TR/2001/REC-SVG-20010904/DTD/svg10.dtd">
<svg version="1.0" xmlns="http://www.w3.org/2000/svg"
 width="500.000000pt" height="500.000000pt" viewBox="0 0 500.000000 500.000000"
 preserveAspectRatio="xMidYMid meet">
<metadata>
Created by potrace 1.14, written by Peter Selinger 2001-2017
</metadata>
<g transform="translate(0.000000,500.000000) scale(0.100000,-0.100000)"
fill="#000000" stroke="none">
<path d="M760 4445 c0 -271 9 -353 25 -232 9 63 27 101 69 145 57 61 76 65
339 70 l237 4 0 -774 c0 -735 -1 -774 -19 -801 -26 -41 -60 -61 -110 -67 -25
-3 -46 -11 -49 -17 -3 -10 73 -13 358 -13 285 0 361 3 358 13 -3 6 -26 15 -53
18 -39 4 -54 12 -86 47 l-39 41 0 776 0 777 233 -4 c211 -3 236 -5 277 -24 81
-39 130 -115 130 -206 0 -27 4 -38 13 -36 9 4 13 72 15 286 l2 282 -850 0
-850 0 0 -285z"/>
<path d="M2540 4445 c0 -247 2 -285 15 -285 11 0 15 11 15 38 0 63 20 113 63
158 62 64 111 74 369 74 l208 0 0 -765 c0 -833 1 -814 -56 -851 -15 -10 -48
-21 -72 -24 -25 -3 -47 -11 -50 -17 -3 -10 73 -13 358 -13 285 0 361 3 358 13
-3 6 -26 15 -53 18 -39 4 -54 12 -86 47 l-39 41 0 776 0 777 233 -4 c211 -3
236 -5 278 -24 78 -36 121 -98 134 -191 16 -121 25 -39 25 232 l0 285 -850 0
-850 0 0 -285z"/>
<path d="M20 2597 l0 -684 258 -7 257 -7 22 28 c13 15 75 102 139 193 64 91
133 188 154 215 29 40 203 282 269 376 8 11 12 21 10 23 -14 11 -1090 546
-1098 546 -8 0 -11 -205 -11 -683z"/>
<path d="M4405 3008 c-297 -149 -542 -273 -544 -274 -4 -4 -1 -9 86 -131 277
-389 497 -694 504 -698 4 -3 123 -2 263 1 l256 7 0 684 c0 540 -3 683 -12 683
-7 -1 -256 -123 -553 -272z"/>
<path d="M2148 2427 c-167 -177 -307 -328 -312 -335 -4 -7 0 -53 10 -103 l17
-90 101 -59 101 -60 310 316 310 316 80 -68 c44 -38 182 -154 306 -259 124
-104 349 -293 499 -420 150 -126 280 -236 290 -243 16 -12 31 2 146 134 71 81
169 192 217 246 53 59 85 104 81 111 -4 7 -19 28 -33 47 -26 35 -92 130 -176
250 -24 36 -100 144 -168 240 l-124 175 -399 5 c-324 4 -412 8 -469 22 -38 9
-153 33 -255 53 -102 19 -195 38 -207 40 -17 4 -76 -53 -325 -318z"/>
<path d="M1245 2633 l-60 -4 -42 -62 c-23 -34 -69 -100 -102 -147 -33 -47 -88
-125 -122 -175 -34 -49 -71 -101 -82 -115 -68 -88 -155 -225 -150 -234 4 -6
39 -49 78 -96 39 -47 113 -136 164 -198 80 -95 96 -110 109 -100 8 7 67 69
130 138 124 135 157 160 214 160 58 0 84 -15 180 -103 93 -85 118 -119 118
-161 0 -52 7 -56 56 -34 75 32 113 18 229 -87 85 -77 100 -99 110 -166 l7 -46
38 10 c60 17 107 -3 189 -79 74 -68 101 -107 101 -144 0 -18 4 -20 40 -14 69
11 104 -2 177 -68 37 -34 75 -75 84 -92 9 -18 19 -70 23 -124 9 -123 -2 -147
-143 -294 -61 -64 -111 -119 -111 -122 0 -8 174 -8 279 1 l83 6 416 451 c229
248 440 477 470 509 l54 57 -114 96 c-62 53 -185 158 -273 234 -473 406 -666
570 -684 581 -20 13 -77 -43 -542 -525 l-76 -79 -104 63 c-57 35 -123 75 -145
89 -23 14 -49 31 -59 36 -17 11 -35 73 -60 216 -8 47 -17 93 -21 102 -4 11 25
50 93 124 83 91 289 324 341 386 14 16 -6 17 -409 15 -233 -1 -451 -3 -484 -5z"/>
<path d="M1182 1436 c-111 -122 -232 -252 -267 -290 -36 -38 -65 -72 -65 -75
0 -4 33 -36 73 -72 l72 -65 110 11 110 10 85 90 c272 288 246 248 242 371 l-4
101 -76 70 -77 70 -203 -221z"/>
<path d="M1778 1352 c-7 -11 -72 -82 -144 -158 -193 -205 -304 -328 -302 -334
2 -3 30 -31 64 -62 l60 -57 108 22 107 23 129 139 129 140 0 55 c-1 112 -9
132 -76 194 -58 53 -62 56 -75 38z"/>
<path d="M1969 869 c-101 -110 -185 -203 -187 -207 -1 -4 21 -31 50 -59 l53
-52 75 10 c66 8 78 14 105 43 17 18 69 76 118 128 86 94 87 96 86 144 -2 83
-11 104 -65 150 l-50 43 -185 -200z"/>
<path d="M2316 648 l-168 -183 49 -43 c48 -43 48 -43 111 -38 35 3 67 8 72 11
5 3 55 56 111 116 l102 111 -7 66 c-6 60 -10 68 -49 103 -23 21 -45 38 -48 39
-3 0 -81 -82 -173 -182z"/>
</g>
</svg>
